<?xml version="1.0" encoding="UTF-8"?>
<svg version="1.1" viewBox="0 0 128 128" xmlns="http://www.w3.org/2000/svg">
<g transform="matrix(.80469 0 0 .80469 12.412 12.815)">
<svg width="128" height="127" data-background-color="#90adbb" viewBox="0 0 98 98" xmlns="http://www.w3.org/2000/svg" xmlns:xlink="http://www.w3.org/1999/xlink">
<g transform="translate(.08388 .08388)">
<svg width="97.832" height="97.832" viewBox="0 0 97.83224064708415 97.83224064708415">
<svg/>
<svg width="97.832" height="97.832" viewBox="0 0 97.83224064708415 97.83224064708415">
<g fill="#f6f6f6" stroke="transparent">
<path d="m0 48.916c0-27.016 21.9-48.916 48.916-48.916s48.916 21.9 48.916 48.916-21.9 48.916-48.916 48.916-48.916-21.9-48.916-48.916zm48.916 44.328c24.481 0 44.328-19.846 44.328-44.328 0-24.481-19.846-44.328-44.328-44.328-24.481 0-44.328 19.846-44.328 44.328 0 24.481 19.846 44.328 44.328 44.328z" data-fill-palette-color="tertiary"/>
<ellipse cx="48.916" cy="48.916" rx="46.959" ry="46.959" stroke-width="0" data-fill-palette-color="tertiary"/>
</g>
<g transform="translate(23.475 23.476)">
<svg width="50.881" height="50.881" viewBox="0 0 50.88145281702547 50.880887473831315">
<svg width="50.881" height="50.881" viewBox="0 0 50.88145281702547 50.880887473831315">
<svg width="50.881" height="50.881" viewBox="0 0 50.88145281702547 50.880887473831315">
<svg width="50.881" height="50.881" viewBox="0 0 50.88145281702547 50.880887473831315">
<svg width="50.881" height="50.881" viewBox="0 0 50.88145281702547 50.880887473831315">
<svg width="50.881" height="50.881" viewBox="0 0 50.88145281702547 50.880887473831315">
<svg class="icon-icon-0" width="50.881" height="50.881" enable-background="new 0 0 100 100" data-fill-palette-color="quaternary" version="1.1" viewBox="4.967 5 90.001 90" xml:space="preserve" xmlns="http://www.w3.org/2000/svg" xmlns:xlink="http://www.w3.org/1999/xlink"><g fill="#90adbb" data-fill-palette-color="quaternary"><polygon points="81.588 69.219 76.042 77.733 49.901 5 30.566 58.797 24.486 43.546 4.967 95 17.555 95 45 95 64.794 95 82.249 95 94.968 95" fill="#90adbb" data-fill-palette-color="quaternary"/></g></svg>
</svg>
</svg>
</svg>
</svg>
</svg>
</svg>
</g>
</svg>
</svg>
<rect width="97.832" height="97.832" fill="none" visibility="hidden"/>
</g>
</svg>
</g>
</svg>
