<?xml version="1.0" encoding="UTF-8"?>
<svg version="1.1" viewBox="0 0 1000 623" xmlns="http://www.w3.org/2000/svg">
<g transform="translate(-.60606 .25223)">
<svg width="1e3" height="623" data-background-color="#ffffff" viewBox="0 0 396 247" xmlns="http://www.w3.org/2000/svg" xmlns:xlink="http://www.w3.org/1999/xlink">
<g transform="translate(.24 -.1)">
<svg width="395.52" height="247.2" viewBox="0 0 395.52 247.2">
<svg/>
<svg width="395.52" height="247.2" viewBox="0 0 395.52 247.2">
<g transform="translate(75.544 75.264)">
<svg width="244.43" height="96.672" viewBox="0 0 244.43135999999998 96.67186000128139">
<svg width="244.43" height="96.672" viewBox="0 0 244.43135999999998 96.67186000128139">
<svg width="244.43" height="96.672" viewBox="0 0 244.43136 96.6718600012814">
<svg width="244.43" height="96.672" viewBox="0 0 244.43136 96.6718600012814">
<svg width="244.43" height="96.672" viewBox="0 0 244.43136 96.6718600012814">
<svg width="244.43" height="68.36" viewBox="0 0 244.43136 68.35964175933611">
<g>
<svg width="244.43" height="68.36" data-palette-color="#233565" viewBox="1.149999976158142 -33.70000076293945 120.48999786376953 33.70000076293945">
<path class="wordmark-text-0" d="m13.45-14.3-0.35 1.2h8.1l-0.35-1.2q-1.45-4.9-2.37-8.35-0.93-3.45-1.13-4.45l-0.2-1q-0.4 2.75-3.7 13.8zm-2.2 7.4-2.05 6.9h-8.05l11.25-33.7h9.7l11.25 33.7h-8.25l-2.05-6.9h-11.8zm38.1-4h-3.9v10.9h-7.7v-33.7h11.6q5.6 0 9.07 3.15 3.48 3.15 3.48 8 0 5.55-3.63 8.6-3.62 3.05-8.92 3.05zm-0.9-16.65h-3v10.55h2.55q6.1 0 6.1-5.55 0-5-5.65-5zm38.4 21.4v6.15h-20.95v-33.7h20.75v6.15h-13v7.65h11.6v6.1h-11.6v7.65h13.2zm19.54-4.35-5.9 10.5h-9.3l10.65-17.1-10.15-16.6h8.95l5.6 9.85 5.35-9.85h9.4l-10.2 16.65 10.85 17.05h-9.15l-6.1-10.5z" fill="#fff" data-fill-palette-color="primary"/>
</svg>
</g>
</svg>
<g transform="translate(0 84.498)">
<svg width="244.43" height="12.174" viewBox="0 0 244.43136 12.174147453968255">
<g>
<svg width="244.43" height="12.174" data-palette-color="#233565" viewBox="0.20000000298023224 -34.79999923706055 708.6900024414062 35.29999923706055">
<path class="slogan-text-1" d="m28.15 0-3.55-8.5h-18.1l-3.5 8.5h-2.8l14.2-34.3h2.5l14.2 34.3h-2.95zm-12.7-30.6-7.95 19.65h16.1l-7.95-19.65h-0.2zm45.6 18.05q0 7.05-3.55 10.05t-9.15 3q-4 0-6.83-1.45-2.82-1.45-4.45-5.2-1.62-3.75-1.62-10.35v-1.3q0-6.6 1.62-10.35 1.63-3.75 4.45-5.2 2.83-1.45 6.83-1.45 5.65 0 9.17 2.95 3.53 2.95 3.53 10.15h-2.65q0-5.95-2.75-8.33-2.75-2.37-7.3-2.37-4.9 0-7.55 3.02-2.65 3.03-2.65 10.98v2.5q0 7.95 2.65 10.97 2.65 3.03 7.55 3.03 10.05 0 10.05-10.65h2.65zm32.6 12.55-3.56-8.5h-18.09l-3.5 8.5h-2.8l14.2-34.3h2.5l14.19 34.3h-2.94zm-12.7-30.6-7.95 19.65h16.09l-7.94-19.65h-0.2zm21.74 30.6v-34.3h11q6.15 0 9.73 3.72 3.57 3.73 3.57 12.78v1.25q0 9-3.6 12.77-3.6 3.78-9.7 3.78h-11zm11-2.4q4.9 0 7.75-3.05t2.85-10.65v-2.15q0-13.65-10.6-13.65h-8.3v29.5h8.3zm44.45 2.4h-21.7v-34.3h21.2l-0.5 2.4h-18v13.2h15.95v2.4h-15.95v13.9h18.45l0.55 2.4zm43.5 0h-2.7v-31.25h-0.25l-13.75 31.25h-2.55l-13.65-31.25h-0.25v31.25h-2.4v-34.3h4.3l13.4 30.85h0.05l13.55-30.85h4.25v34.3zm9.4-31.85v-2.45h10.6v2.45h-3.95v29.4h3.95v2.45h-10.6v-2.45h3.95v-29.4h-3.95zm43.99 19.3q0 7.05-3.55 10.05t-9.15 3q-4 0-6.82-1.45-2.83-1.45-4.45-5.2-1.63-3.75-1.63-10.35v-1.3q0-6.6 1.63-10.35 1.62-3.75 4.45-5.2 2.82-1.45 6.82-1.45 5.65 0 9.18 2.95 3.52 2.95 3.52 10.15h-2.65q0-5.95-2.75-8.33-2.75-2.37-7.3-2.37-4.9 0-7.55 3.02-2.65 3.03-2.65 10.98v2.5q0 7.95 2.65 10.97 2.65 3.03 7.55 3.03 10.05 0 10.05-10.65h2.65zm21.25 12.55v-34.3h14.05q2.55 0 4.7 1.25t3.4 3.4 1.25 4.7-1.25 4.7-3.4 3.4-4.7 1.25h-11.35v15.6h-2.7zm13.7-17.95q1.9 0 3.55-0.93 1.65-0.92 2.6-2.55 0.95-1.62 0.95-3.52t-0.95-3.5-2.6-2.53q-1.65-0.92-3.55-0.92h-11v13.95h11zm39.09 17.95-3.54-8.5h-18.1l-3.5 8.5h-2.8l14.19-34.3h2.5l14.21 34.3h-2.96zm-12.69-30.6-7.95 19.65h16.1l-7.96-19.65h-0.19zm21.74 30.6v-34.3h14.05q2.55 0 4.7 1.25t3.4 3.4 1.25 4.7-1.25 4.7-3.4 3.4-4.7 1.25h-11.35v15.6h-2.7zm13.7-17.95q1.9 0 3.55-0.93 1.65-0.92 2.6-2.55 0.95-1.62 0.95-3.52t-0.95-3.5-2.6-2.53q-1.65-0.92-3.55-0.92h-11v13.95h11zm39.2 17.95h-21.7v-34.3h21.2l-0.5 2.4h-18v13.2h15.95v2.4h-15.95v13.9h18.45l0.55 2.4zm33.3-0.05q-0.1 0.05-0.45 0.13-0.35 0.07-0.8 0.07-1.55 0-2.73-1.38-1.17-1.37-1.17-5.12 0-6-2.1-7.98-2.1-1.97-4.35-1.97h-11.05v16.3h-2.7v-34.3h13.95q2.45 0 4.62 1.07 2.18 1.08 3.53 3 1.35 1.93 1.35 4.43 0 1.8-0.8 3.55t-2.23 3q-1.42 1.25-3.12 1.55v0.25q0-0.25 1.52 0.6 1.53 0.85 2.75 3.02 1.23 2.18 1.23 6.18 0 2.85 0.35 4.17 0.35 1.33 0.72 1.65 0.38 0.33 1.48 0.83v0.95zm-11.25-18.65q1.8 0 3.35-0.9t2.45-2.43q0.9-1.52 0.9-3.32t-0.9-3.3-2.43-2.38q-1.52-0.87-3.37-0.87h-11.4v13.2h11.4zm56.94 18.65q-0.1 0.05-0.45 0.13-0.35 0.07-0.8 0.07-1.55 0-2.72-1.38-1.18-1.37-1.18-5.12 0-6-2.1-7.98-2.1-1.97-4.35-1.97h-11.05v16.3h-2.7v-34.3h13.95q2.45 0 4.63 1.07 2.17 1.08 3.52 3 1.35 1.93 1.35 4.43 0 1.8-0.8 3.55t-2.22 3q-1.43 1.25-3.13 1.55v0.25q0-0.25 1.53 0.6 1.52 0.85 2.75 3.02 1.22 2.18 1.22 6.18 0 2.85 0.35 4.17 0.35 1.33 0.73 1.65 0.37 0.33 1.47 0.83v0.95zm-11.25-18.65q1.8 0 3.35-0.9t2.45-2.43q0.9-1.52 0.9-3.32t-0.9-3.3-2.42-2.38q-1.53-0.87-3.38-0.87h-11.4v13.2h11.4zm41.1 18.7h-21.7v-34.3h21.2l-0.5 2.4h-18v13.2h15.95v2.4h-15.95v13.9h18.45l0.55 2.4zm18.05-4.3 11.25-30h2.65l-12.95 34.3h-2.4l-13-34.3h2.95l11.25 30h0.25zm18.09-27.55v-2.45h10.6v2.45h-3.95v29.4h3.95v2.45h-10.6v-2.45h3.95v-29.4h-3.95zm41.85 31.85h-21.7v-34.3h21.2l-0.5 2.4h-18v13.2h15.95v2.4h-15.95v13.9h18.45l0.55 2.4zm34.9-5.35 8.35-28.95h2.5l-10 34.3h-2.3l-8.45-29.05h-0.2l-8.45 29.05h-2.3l-10-34.3h2.9l8.35 28.95h0.2l8.35-28.95h2.5l8.35 28.95h0.2zm16.9-26.5v-2.45h10.6v2.45h-3.95v29.4h3.95v2.45h-10.6v-2.45h3.95v-29.4h-3.95zm44.09 31.85h-2.4l-19-29.15h-0.15v29.15h-2.4v-34.3h2.3l19.1 29.15h0.15v-29.15h2.4v34.3zm32.35-15.15h-11.6v-2.35h14.1v11.55q0 2.2 0.13 3.85 0.12 1.65 0.17 2.1h-1.85q-0.1-0.3-0.32-1.48-0.23-1.17-0.48-3.12-1.5 2.65-4.22 3.87-2.73 1.23-6.13 1.23-4 0-6.82-1.45-2.83-1.45-4.45-5.2-1.63-3.75-1.63-10.35v-1.3q0-6.6 1.63-10.35 1.62-3.75 4.45-5.2 2.82-1.45 6.82-1.45 5.6 0 9.15 2.8t3.55 9.55h-2.65q0-5.5-2.8-7.73-2.8-2.22-7.25-2.22-4.9 0-7.55 3.02-2.65 3.03-2.65 10.98v2.5q0 7.95 2.65 10.97 2.65 3.03 7.55 3.03 10.2 0 10.2-10.65v-2.6z" fill="#fff" data-fill-palette-color="secondary"/>
</svg>
</g>
</svg>
</g>
</svg>
</svg>
</svg>
</svg>
</svg>
</g>
<path d="m168.05 69.264v-57.215h223.1v223.1h-223.1v-57.215h6.165v51.05h210.77v-210.77h-210.77v51.05z" fill="#fff" stroke="transparent" data-fill-palette-color="primary"/>
</svg>
</svg>
<rect width="395.52" height="247.2" fill="none" visibility="hidden"/>
</g>
</svg>
</g>
</svg>
