<?xml version="1.0" encoding="UTF-8"?>
<svg version="1.1" viewBox="0 0 1000 1000" xmlns="http://www.w3.org/2000/svg">
<g transform="translate(-.14222 -.14222)">
<svg width="1e3" height="1e3" data-background-color="#90adbb" viewBox="0 0 334 334" xmlns="http://www.w3.org/2000/svg" xmlns:xlink="http://www.w3.org/1999/xlink">
<g transform="translate(.0475 .0475)">
<svg width="333.9" height="333.9" viewBox="0 0 333.90454557049503 333.90454557049503">
<svg/>
<svg width="333.9" height="333.9" viewBox="0 0 333.90454557049503 333.90454557049503">
<g fill="#f6f6f6" stroke="transparent">
<path d="m0 166.95c0-92.205 74.747-166.95 166.95-166.95s166.95 74.747 166.95 166.95c0 92.205-74.747 166.95-166.95 166.95-92.205 0-166.95-74.747-166.95-166.95zm166.95 162.16c89.559 0 162.16-72.602 162.16-162.16 0-89.559-72.602-162.16-162.16-162.16-89.559 0-162.16 72.602-162.16 162.16 0 89.559 72.602 162.16 162.16 162.16z" data-fill-palette-color="tertiary"/>
<ellipse cx="166.95" cy="166.95" rx="160.27" ry="160.27" stroke-width="0" data-fill-palette-color="tertiary"/>
</g>
<g transform="translate(69.173 71.173)">
<svg width="195.56" height="191.56" viewBox="0 0 195.55806315246338 191.55844122715712">
<svg width="195.56" height="191.56" viewBox="0 0 195.55806315246338 191.55844122715712">
<svg width="195.56" height="191.56" viewBox="0 0 213.1584412271571 208.79885021181983">
<g transform="translate(0 126.88)">
<svg width="213.16" height="81.918" viewBox="0 0 213.1584412271571 81.9182113783049">
<svg width="213.16" height="81.918" viewBox="0 0 213.1584412271571 81.9182113783049">
<svg width="213.16" height="57.904" viewBox="0 0 213.1584412271571 57.90368656152057">
<g>
<svg width="213.16" height="57.904" data-palette-color="#90adbb" viewBox="1 -36.20000076293945 134.5399932861328 36.54999923706055">
<path class="wordmark-text-0" d="m10.9 0.05-4.15-0.05-4.3 0.2q-1.45 0-1.45-0.6 0-0.7 0.75-0.95 1.6-0.6 2.8-2.68 1.2-2.07 6.03-12.54 4.82-10.48 8.57-18.48 0.35-0.75 0.63-0.95 0.27-0.2 0.8-0.2 0.52 0 0.67 0.2t0.55 1.35 0.63 1.75q0.22 0.6 0.72 1.95t1.6 4.05 5.03 11.82q3.92 9.13 4.52 10.35 0.6 1.23 1.65 2.1 1.05 0.88 1.82 0.95 0.78 0.08 1.31 0.25 0.52 0.18 0.52 0.78 0 0.75-1.35 0.75l-4.5-0.3-4.65 0.2q-1.55 0-1.97-0.13-0.43-0.12-0.43-0.52t0.4-0.63q0.4-0.22 0.85-0.3 0.45-0.07 0.85-0.44 0.4-0.38 0.4-1.26 0-0.87-1.25-4.27t-2.1-5q-0.45-0.85-2.05-0.85l-6.05 0.1h-2.65q-2.25 0-2.82 0.25-0.58 0.25-0.95 1.05-0.38 0.8-1.08 2.22-0.7 1.43-0.95 1.98t-0.6 1.4q-0.65 1.5-0.65 2.5t0.58 1.6q0.57 0.6 1.27 0.7 1.85 0.15 1.85 0.95 0 0.35-0.15 0.52-0.15 0.18-0.7 0.18zm7.9-28.55q-0.45 0-2.85 5.52-2.4 5.53-2.4 6.13t0.45 0.75 2.1 0.15h1.55l4.75-0.05q1.95 0 1.95-0.73 0-0.72-2.45-6.25-2.45-5.52-3.1-5.52zm27.5 6.95-0.05-8.5q0-1.35-0.85-2.68-0.85-1.32-2.8-1.32-1 0-1-0.65 0-0.8 1.15-0.8l1.85-0.05 3 0.15 8.25-0.15q4.7 0 8.1 2.37 3.4 2.38 3.4 6.83 0 2.45-0.9 4.37-0.9 1.93-2.18 3.03-1.27 1.1-2.87 1.85-2.55 1.15-4.55 1.15t-3.65-0.37q-1.65-0.38-1.65-0.78 0-0.75 0.65-0.75 0.25 0 1.02 0.2 0.78 0.2 1.73 0.2t2.25-0.33q1.3-0.32 2.7-1.04 1.4-0.73 2.3-2.21 0.9-1.47 0.9-3.42 0-3.35-2.7-6.23-2.7-2.87-7.45-2.87-1.55 0-2.1 0.92-0.55 0.93-0.55 4.18l-0.1 20.65q0 5.8 3.4 6.2 0.85 0.1 1.4 0.1 1.4-0.1 1.4 1 0 0.85-1.15 0.85l-7.15-0.25-4.65 0.2q-1.55 0-1.55-0.55 0-0.85 0.55-1.05 0.25-0.1 0.35-0.15t0.47-0.13q0.38-0.07 0.5-0.12 0.13-0.05 0.33-0.08 0.2-0.02 0.27-0.05 0.08-0.02 0.25-0.15 0.18-0.12 0.28-0.35 0.1-0.22 0.27-0.6 0.18-0.37 0.45-1.15 0.28-0.77 0.48-7.32t0.2-10.15zm28.3 10v-6.2l0.15-8.65q0-1.35-0.1-4.55-0.05-1.45-1.25-2.25t-2.8-0.85q-0.8 0-0.8-0.9 0-0.7 1.4-0.7l1.35 0.1 12.2 0.25 10-0.2q0.95 0 0.95 1.15 0 0.3-0.3 1.97-0.3 1.68-0.3 2.63 0 1.6-0.78 1.6-0.77 0-0.77-1.2t-0.85-2.3-2.1-1.15q-4.5-0.35-6.9-0.35h-1.3q-2.6 0-3 0.35-0.75 0.65-0.75 11.05 0 2.5 0.95 2.55h4.9q3 0 4-0.2 2.6-0.5 2.95-2.6 0.15-0.85 0.65-0.85t0.6 0.15 0.1 0.65l-0.4 5.25 0.15 3.05q0 1.25-0.35 1.25-0.75 0-1.1-1.2-0.7-2.1-1.25-2.45-1.05-0.7-3.65-0.7h-3.6l-1.6-0.05h-0.35q-2.05 0-2.05 0.95l-0.1 7.2v2q0 3.6 1.22 3.97 1.23 0.38 2.13 0.38 7.5 0 10.85-1.2 2.95-1.1 3.6-2.3 0.6-1.25 1.1-1.25 0.6 0 0.6 0.85 0 2.15-2.15 4.35t-3.75 2.2q-3.6 0-8.13-0.25-4.52-0.25-5.62-0.25l-6.8 0.45q-1.05 0-1.05-0.5v-0.6q0-0.3 0.5-0.4 0.55-0.05 1.7-0.6t1.52-2.3q0.38-1.75 0.38-7.35zm35.49 11.55-4.4-0.15-4 0.2q-0.95 0-1.2-0.25t-0.25-0.65 0.3-0.53q0.3-0.12 0.75-0.12 1.25-0.1 2.13-0.77 0.87-0.68 1.45-1.23 0.57-0.55 1.2-1.33 0.62-0.77 1.12-1.37t1.25-1.63q0.75-1.02 1.13-1.55 0.37-0.52 1.2-1.7 0.82-1.17 1.35-1.9 0.52-0.72 1.57-2.1 1.05-1.37 1.48-1.97 0.42-0.6 0.42-0.75t-0.2-0.48q-0.2-0.32-0.75-1.1-0.55-0.77-1.25-1.72-2.75-3.8-4.6-6.45-4-5.9-6.8-6.5-1.1 0-1.55-0.35t-0.45-0.7 0.35-0.48q0.35-0.12 1.75-0.12l4.45 0.2 5.25-0.1q1.1 0 1.1 0.45t-0.35 0.65-0.75 0.2q-1.15 0.1-1.15 1.07 0 0.98 2.7 4.88 4.05 6.15 4.45 6.55t0.55 0.4q0.4 0 1-0.88 0.6-0.87 1.6-2.3 1-1.42 1.78-2.55 0.77-1.12 1.57-2.37 1.8-2.6 1.8-3.33 0-0.72-0.42-1.1-0.43-0.37-0.88-0.42-1.35-0.15-1.35-0.85 0-0.5 0.75-0.5l4.05 0.2q2.8 0 3.68-0.1 0.87-0.1 1.02-0.1 0.8 0 0.8 0.5t-0.45 0.68q-0.45 0.17-1.45 0.52t-1.9 0.98q-0.9 0.62-2.6 2.92-7.75 10.4-7.75 10.5 0 0.35 2.08 3.3 2.07 2.95 4.22 6.05 4.6 6.7 6.5 8.25 0.15 0.15 1 0.3 2.15 0.4 2.15 1.05 0 0.25-0.05 0.35-0.2 0.35-1.55 0.35l-5.35-0.35q-2.5 0-3.7 0.15t-1.4 0.15q-0.65 0-0.65-0.63 0-0.62 1.28-0.92 1.27-0.3 1.27-1.25t-2.9-5.2q-3.5-5-4.45-6.5t-1.3-1.5q-0.1 0-1.12 1.65-1.03 1.65-3.1 4.42-2.08 2.78-3.13 4.48t-1.05 2.7q0 1.35 2.7 1.35 0.6 0 0.6 0.85 0 0.55-1.55 0.55z" fill="#90adbb" data-fill-palette-color="quaternary"/>
</svg>
</g>
</svg>
<g transform="translate(0 71.573)">
<svg width="213.16" height="10.345" viewBox="0 0 213.1584412271571 10.344854108086809">
<g>
<svg width="213.16" height="10.345" data-palette-color="#90adbb" viewBox="0.75 -35.5 743.7899780273438 36.099998474121094">
<path class="slogan-text-1" d="m0.75 0v-2.7h2.6l11.1-32.2h5.7l11.1 32.2h2.6v2.7h-13.05v-2.7h4.3l-2.8-8.35h-12.65l-2.8 8.35h4.3v2.7h-10.4zm15.1-30.2-5.4 16.3h11.05l-5.4-16.3h-0.25zm34.95 30.8q-3.5 0-6.28-1.33-2.77-1.32-4.72-3.69-1.95-2.38-2.98-5.71-1.02-3.32-1.02-7.32 0-4.35 1.12-7.73 1.13-3.37 3.08-5.67t4.62-3.48q2.68-1.17 5.78-1.17 3.25 0 5.22 1.1 1.98 1.1 2.68 2.55h0.25v-3.05h4.55v10.6h-4.55v-2.45q0-2.55-1.98-4.08-1.97-1.52-5.37-1.52-2.25 0-3.93 0.77-1.67 0.78-2.75 2.2-1.07 1.43-1.62 3.4-0.55 1.98-0.55 4.33v7.8q0 5.15 2.57 7.9 2.58 2.75 7.03 2.75 3.4 0 5.72-1.78 2.33-1.77 3.43-4.62l2.35 1.25q-0.55 1.65-1.63 3.25-1.07 1.6-2.67 2.87-1.6 1.28-3.7 2.05-2.1 0.78-4.65 0.78zm15.25-0.6v-2.7h2.6l11.1-32.2h5.7l11.1 32.2h2.6v2.7h-13.05v-2.7h4.3l-2.8-8.35h-12.65l-2.8 8.35h4.3v2.7h-10.4zm15.1-30.2-5.4 16.3h11.05l-5.4-16.3h-0.25zm21.19 30.2v-2.7h3.65v-29.5h-3.65v-2.7h15.35q3.5 0 6.45 1.13 2.95 1.12 5.1 3.32t3.33 5.45q1.17 3.25 1.17 7.55t-1.17 7.55q-1.18 3.25-3.33 5.45t-5.1 3.32q-2.95 1.13-6.45 1.13h-15.35zm9.6-31.95v29h4.9q5.15 0 7.75-2.75t2.6-8.05v-7.4q0-5.3-2.6-8.05t-7.75-2.75h-4.9zm26.8 31.95v-2.7h3.65v-29.5h-3.65v-2.7h26.7v8.8h-4.55v-5.85h-12.55v12.4h8.5v-3.55h3.3v10.05h-3.3v-3.55h-8.5v13.65h13.05v-6.5h4.55v9.45h-27.2zm32.45 0v-2.7h3.65v-29.5h-3.65v-2.7h10.4l9.2 19.55h0.15l9.25-19.55h10.2v2.7h-3.65v29.5h3.65v2.7h-13.2v-2.7h3.65v-26.7h-0.25l-2.5 5.9-8.65 17.85-8.6-17.85-2.5-5.9h-0.25v26.7h3.65v2.7h-10.55zm44.09 0v-2.7h3.66v-29.5h-3.66v-2.7h13.25v2.7h-3.64v29.5h3.64v2.7h-13.25zm33.25 0.6q-3.5 0-6.27-1.33-2.78-1.32-4.73-3.69-1.95-2.38-2.97-5.71-1.03-3.32-1.03-7.32 0-4.35 1.13-7.73 1.12-3.37 3.07-5.67t4.63-3.48q2.67-1.17 5.77-1.17 3.25 0 5.23 1.1 1.97 1.1 2.67 2.55h0.25v-3.05h4.55v10.6h-4.55v-2.45q0-2.55-1.97-4.08-1.98-1.52-5.38-1.52-2.25 0-3.92 0.77-1.68 0.78-2.75 2.2-1.08 1.43-1.63 3.4-0.55 1.98-0.55 4.33v7.8q0 5.15 2.58 7.9 2.57 2.75 7.02 2.75 3.4 0 5.73-1.78 2.32-1.77 3.42-4.62l2.35 1.25q-0.55 1.65-1.62 3.25-1.08 1.6-2.68 2.87-1.6 1.28-3.7 2.05-2.1 0.78-4.65 0.78zm29.3-0.6v-2.7h3.65v-29.5h-3.65v-2.7h17.6q5.05 0 7.67 2.4 2.63 2.4 2.63 7.05 0 4.7-2.75 7.25t-7.8 2.55h-7.75v12.95h4.75v2.7h-14.35zm9.6-31.95v13.35h6.65q2.65 0 4.07-1.5 1.43-1.5 1.43-4v-2.35q0-2.5-1.43-4-1.42-1.5-4.07-1.5h-6.65zm18.65 31.95v-2.7h2.6l11.1-32.2h5.7l11.1 32.2h2.6v2.7h-13.05v-2.7h4.3l-2.8-8.35h-12.65l-2.8 8.35h4.3v2.7h-10.4zm15.1-30.2-5.4 16.3h11.05l-5.4-16.3h-0.25zm21.19 30.2v-2.7h3.65v-29.5h-3.65v-2.7h17.6q5.05 0 7.68 2.4 2.62 2.4 2.62 7.05 0 4.7-2.75 7.25t-7.8 2.55h-7.75v12.95h4.75v2.7h-14.35zm9.6-31.95v13.35h6.65q2.65 0 4.08-1.5 1.42-1.5 1.42-4v-2.35q0-2.5-1.42-4-1.43-1.5-4.08-1.5h-6.65zm22.9 31.95v-2.7h3.65v-29.5h-3.65v-2.7h26.7v8.8h-4.55v-5.85h-12.55v12.4h8.5v-3.55h3.3v10.05h-3.3v-3.55h-8.5v13.65h13.05v-6.5h4.55v9.45h-27.2zm32.45 0v-2.7h3.65v-29.5h-3.65v-2.7h17.75q2.3 0 4.17 0.55 1.88 0.55 3.2 1.67 1.33 1.13 2.05 2.85 0.73 1.73 0.73 4.03 0 3.6-2.08 5.92-2.07 2.33-5.62 3.03l6.1 10.85q1 1.75 2.17 2.52 1.18 0.78 2.93 0.78h0.35v2.7h-3.85q-1.6 0-2.73-0.28-1.12-0.27-1.97-0.85-0.85-0.57-1.5-1.45-0.65-0.87-1.25-2.07l-5.85-11.15h-5v13.1h3.65v2.7h-13.25zm9.6-31.95v13.35h6.65q2.65 0 4.07-1.5 1.43-1.5 1.43-4v-2.35q0-2.5-1.43-4-1.42-1.5-4.07-1.5h-6.65zm36.94 31.95v-2.7h3.65v-29.5h-3.65v-2.7h17.75q2.3 0 4.18 0.55 1.87 0.55 3.2 1.67 1.32 1.13 2.05 2.85 0.72 1.73 0.72 4.03 0 3.6-2.07 5.92-2.08 2.33-5.63 3.03l6.1 10.85q1 1.75 2.18 2.52 1.17 0.78 2.92 0.78h0.35v2.7h-3.85q-1.6 0-2.72-0.28-1.13-0.27-1.98-0.85-0.85-0.57-1.5-1.45-0.65-0.87-1.25-2.07l-5.85-11.15h-5v13.1h3.65v2.7h-13.25zm9.6-31.95v13.35h6.65q2.65 0 4.08-1.5 1.42-1.5 1.42-4v-2.35q0-2.5-1.42-4-1.43-1.5-4.08-1.5h-6.65zm25.35 31.95v-2.7h3.65v-29.5h-3.65v-2.7h26.7v8.8h-4.55v-5.85h-12.55v12.4h8.5v-3.55h3.3v10.05h-3.3v-3.55h-8.5v13.65h13.05v-6.5h4.55v9.45h-27.2zm43.7 0-10.65-32.2h-2.6v-2.7h13v2.7h-4.3l4.9 15.25 3.55 11.9h0.25l3.55-11.9 4.9-15.25h-4.3v-2.7h10.4v2.7h-2.6l-10.65 32.2h-5.45zm22.1 0v-2.7h3.64v-29.5h-3.64v-2.7h13.25v2.7h-3.66v29.5h3.66v2.7h-13.25zm18.14 0v-2.7h3.65v-29.5h-3.65v-2.7h26.7v8.8h-4.55v-5.85h-12.55v12.4h8.5v-3.55h3.3v10.05h-3.3v-3.55h-8.5v13.65h13.05v-6.5h4.55v9.45h-27.2zm41.35 0-8-32.2h-2.6v-2.7h12.95v2.7h-4.25l6.05 26.25h0.25l7.4-28.95h5.4l7.4 28.95h0.25l6.05-26.25h-4.25v-2.7h10.4v2.7h-2.6l-8 32.2h-5.75l-7.35-27.5h-0.25l-7.35 27.5h-5.75zm40.5 0v-2.7h3.65v-29.5h-3.65v-2.7h13.25v2.7h-3.65v29.5h3.65v2.7h-13.25zm18.14 0v-2.7h3.65v-29.5h-3.65v-2.7h10.6l16.85 26.65h0.25v-23.95h-3.65v-2.7h10.55v2.7h-3.65v32.2h-5.05l-18.75-29.65h-0.25v26.95h3.65v2.7h-10.55zm54.25 0.6q-3.3 0-6.05-1.25t-4.72-3.58q-1.98-2.32-3.08-5.67t-1.1-7.55q0-4.35 1.15-7.73 1.15-3.37 3.2-5.67t4.93-3.48q2.87-1.17 6.27-1.17 3.8 0 5.93 1.12 2.12 1.13 2.72 2.53h0.25v-3.05h4.55v10.6h-4.55v-2.35q0-2.7-2.02-4.2-2.03-1.5-5.88-1.5-5.15 0-7.57 2.87-2.43 2.88-2.43 8.18v7.7q0 5.1 2.45 7.95t6.65 2.85q3.7 0 5.88-1.85 2.17-1.85 2.17-5.1v-4.7h-5.7v-2.7h14.5v2.7h-2.9v14.45h-2.15l-2.65-4.9h-0.25q-0.35 0.9-1.12 1.87-0.78 0.98-2 1.78-1.23 0.8-2.85 1.33-1.63 0.52-3.63 0.52z" fill="#90adbb" data-fill-palette-color="quaternary"/>
</svg>
</g>
</svg>
</g>
</svg>
</svg>
</g>
<g transform="translate(49.973)">
<svg width="113.21" height="113.21" viewBox="0 0 113.2122253334783 113.21096812481738">
<svg class="icon-icon-0" width="113.21" height="113.21" enable-background="new 0 0 100 100" data-fill-palette-color="quaternary" version="1.1" viewBox="4.9670000076293945 5 90.0009994506836 90" xml:space="preserve" xmlns="http://www.w3.org/2000/svg" xmlns:xlink="http://www.w3.org/1999/xlink"><g fill="#90adbb" data-fill-palette-color="quaternary"><polygon points="81.588 69.219 76.042 77.733 49.901 5 30.566 58.797 24.486 43.546 4.967 95 17.555 95 45 95 64.794 95 82.249 95 94.968 95" fill="#90adbb" data-fill-palette-color="quaternary"/></g></svg>
</svg>
</g>
</svg>
</svg>
</svg>
</g>
</svg>
</svg>
<rect width="333.9" height="333.9" fill="none" visibility="hidden"/>
</g>
</svg>
</g>
</svg>
